<mxfile host="app.diagrams.net" modified="2021-08-02T11:54:24.374Z" agent="5.0 (Macintosh; Intel Mac OS X 10_15_7) AppleWebKit/605.1.15 (KHTML, like Gecko) Version/14.1.2 Safari/605.1.15" etag="CvhqShyHU5X2QvWr-fSt" version="14.9.3" type="github">
  <diagram id="kgpKYQtTHZ0yAKxKKP6v" name="Page-1">
    <mxGraphModel dx="946" dy="591" grid="1" gridSize="10" guides="1" tooltips="1" connect="1" arrows="1" fold="1" page="1" pageScale="1" pageWidth="850" pageHeight="1100" math="0" shadow="0">
      <root>
        <mxCell id="0" />
        <mxCell id="1" parent="0" />
        <mxCell id="p7BTwmTzS3zFtRXm9ndh-7" value="" style="edgeStyle=orthogonalEdgeStyle;rounded=0;orthogonalLoop=1;jettySize=auto;html=1;" edge="1" parent="1" source="p7BTwmTzS3zFtRXm9ndh-1" target="p7BTwmTzS3zFtRXm9ndh-6">
          <mxGeometry relative="1" as="geometry" />
        </mxCell>
        <mxCell id="p7BTwmTzS3zFtRXm9ndh-1" value="" style="ellipse;whiteSpace=wrap;html=1;aspect=fixed;fillColor=#000000;" vertex="1" parent="1">
          <mxGeometry x="30" y="184.38" width="10" height="10" as="geometry" />
        </mxCell>
        <mxCell id="p7BTwmTzS3zFtRXm9ndh-10" style="edgeStyle=orthogonalEdgeStyle;rounded=0;orthogonalLoop=1;jettySize=auto;html=1;fontFamily=Comic Sans MS;" edge="1" parent="1" source="p7BTwmTzS3zFtRXm9ndh-6">
          <mxGeometry relative="1" as="geometry">
            <mxPoint x="390.0000063291143" y="189.39999999999998" as="targetPoint" />
          </mxGeometry>
        </mxCell>
        <mxCell id="p7BTwmTzS3zFtRXm9ndh-6" value="Заказ" style="ellipse;whiteSpace=wrap;html=1;aspect=fixed;fillColor=#FFFFFF;" vertex="1" parent="1">
          <mxGeometry x="180" y="140" width="100" height="100" as="geometry" />
        </mxCell>
        <mxCell id="p7BTwmTzS3zFtRXm9ndh-9" value="Заказ еды через приложение." style="rounded=0;whiteSpace=wrap;html=1;strokeColor=#000000;fillColor=#FFFFFF;fontFamily=Comic Sans MS;" vertex="1" parent="1">
          <mxGeometry x="10" y="440" width="240" height="60" as="geometry" />
        </mxCell>
        <mxCell id="p7BTwmTzS3zFtRXm9ndh-13" value="Выбор ресторана Х" style="text;html=1;align=center;verticalAlign=middle;resizable=0;points=[];autosize=1;strokeColor=none;fontFamily=Comic Sans MS;rotation=0;" vertex="1" parent="1">
          <mxGeometry x="50" y="164.38" width="130" height="20" as="geometry" />
        </mxCell>
        <mxCell id="p7BTwmTzS3zFtRXm9ndh-16" value="Ввод адреса доставки" style="text;html=1;align=center;verticalAlign=middle;resizable=0;points=[];autosize=1;strokeColor=none;fontFamily=Comic Sans MS;rotation=0;" vertex="1" parent="1">
          <mxGeometry x="45" y="200.63" width="140" height="20" as="geometry" />
        </mxCell>
        <mxCell id="p7BTwmTzS3zFtRXm9ndh-21" value="" style="edgeStyle=orthogonalEdgeStyle;rounded=0;orthogonalLoop=1;jettySize=auto;html=1;fontFamily=Comic Sans MS;" edge="1" parent="1" source="p7BTwmTzS3zFtRXm9ndh-17" target="p7BTwmTzS3zFtRXm9ndh-20">
          <mxGeometry relative="1" as="geometry" />
        </mxCell>
        <mxCell id="p7BTwmTzS3zFtRXm9ndh-17" value="Оплата" style="ellipse;whiteSpace=wrap;html=1;aspect=fixed;fontFamily=Comic Sans MS;strokeColor=#000000;fillColor=#FFFFFF;" vertex="1" parent="1">
          <mxGeometry x="390" y="141.25" width="98.75" height="98.75" as="geometry" />
        </mxCell>
        <mxCell id="p7BTwmTzS3zFtRXm9ndh-19" value="Выбор блюд из списка&lt;br&gt;[Подтверждение заказа]" style="text;html=1;align=center;verticalAlign=middle;resizable=0;points=[];autosize=1;strokeColor=none;fontFamily=Comic Sans MS;rotation=0;" vertex="1" parent="1">
          <mxGeometry x="260" y="120" width="160" height="30" as="geometry" />
        </mxCell>
        <mxCell id="p7BTwmTzS3zFtRXm9ndh-34" value="" style="edgeStyle=orthogonalEdgeStyle;rounded=0;orthogonalLoop=1;jettySize=auto;html=1;fontFamily=Comic Sans MS;" edge="1" parent="1" source="p7BTwmTzS3zFtRXm9ndh-20" target="p7BTwmTzS3zFtRXm9ndh-33">
          <mxGeometry relative="1" as="geometry" />
        </mxCell>
        <mxCell id="p7BTwmTzS3zFtRXm9ndh-20" value="Оплачено" style="ellipse;whiteSpace=wrap;html=1;aspect=fixed;fontFamily=Comic Sans MS;strokeColor=#000000;fillColor=#FFFFFF;" vertex="1" parent="1">
          <mxGeometry x="570" y="140" width="98.75" height="98.75" as="geometry" />
        </mxCell>
        <mxCell id="p7BTwmTzS3zFtRXm9ndh-22" value="Ввод карточных данных" style="text;html=1;align=center;verticalAlign=middle;resizable=0;points=[];autosize=1;strokeColor=none;fontFamily=Comic Sans MS;rotation=0;" vertex="1" parent="1">
          <mxGeometry x="459.38" y="121.25" width="150" height="20" as="geometry" />
        </mxCell>
        <mxCell id="p7BTwmTzS3zFtRXm9ndh-26" value="" style="endArrow=classic;html=1;fontFamily=Comic Sans MS;exitX=0.719;exitY=0.992;exitDx=0;exitDy=0;exitPerimeter=0;" edge="1" parent="1" source="p7BTwmTzS3zFtRXm9ndh-20">
          <mxGeometry width="50" height="50" relative="1" as="geometry">
            <mxPoint x="770" y="230" as="sourcePoint" />
            <mxPoint x="641" y="350" as="targetPoint" />
          </mxGeometry>
        </mxCell>
        <mxCell id="p7BTwmTzS3zFtRXm9ndh-31" value="" style="edgeStyle=orthogonalEdgeStyle;rounded=0;orthogonalLoop=1;jettySize=auto;html=1;fontFamily=Comic Sans MS;" edge="1" parent="1" source="p7BTwmTzS3zFtRXm9ndh-28">
          <mxGeometry relative="1" as="geometry">
            <mxPoint x="645" y="510" as="targetPoint" />
          </mxGeometry>
        </mxCell>
        <mxCell id="p7BTwmTzS3zFtRXm9ndh-28" value="Заказ принят" style="ellipse;whiteSpace=wrap;html=1;aspect=fixed;fontFamily=Comic Sans MS;strokeColor=#000000;fillColor=#FFFFFF;" vertex="1" parent="1">
          <mxGeometry x="600" y="350" width="90" height="90" as="geometry" />
        </mxCell>
        <mxCell id="p7BTwmTzS3zFtRXm9ndh-30" value="Доставлен" style="ellipse;whiteSpace=wrap;html=1;aspect=fixed;fontFamily=Comic Sans MS;strokeColor=#000000;fillColor=#FFFFFF;" vertex="1" parent="1">
          <mxGeometry x="600" y="510" width="90" height="90" as="geometry" />
        </mxCell>
        <mxCell id="p7BTwmTzS3zFtRXm9ndh-33" value="Отклонено рестораном" style="ellipse;whiteSpace=wrap;html=1;aspect=fixed;fontFamily=Comic Sans MS;strokeColor=#000000;fillColor=#FFFFFF;" vertex="1" parent="1">
          <mxGeometry x="747.5" y="318.75" width="98.75" height="98.75" as="geometry" />
        </mxCell>
        <mxCell id="p7BTwmTzS3zFtRXm9ndh-38" value="Передан курьеру&lt;br&gt;" style="text;html=1;align=center;verticalAlign=middle;resizable=0;points=[];autosize=1;strokeColor=none;fontFamily=Comic Sans MS;" vertex="1" parent="1">
          <mxGeometry x="650" y="460" width="110" height="20" as="geometry" />
        </mxCell>
        <mxCell id="p7BTwmTzS3zFtRXm9ndh-44" value="Возврат средств" style="text;html=1;align=center;verticalAlign=middle;resizable=0;points=[];autosize=1;strokeColor=none;fontFamily=Comic Sans MS;rotation=90;" vertex="1" parent="1">
          <mxGeometry x="760" y="230" width="110" height="20" as="geometry" />
        </mxCell>
        <mxCell id="p7BTwmTzS3zFtRXm9ndh-45" value="" style="endArrow=classic;html=1;fontFamily=Comic Sans MS;" edge="1" parent="1">
          <mxGeometry width="50" height="50" relative="1" as="geometry">
            <mxPoint x="438.87" y="240" as="sourcePoint" />
            <mxPoint x="320" y="350" as="targetPoint" />
          </mxGeometry>
        </mxCell>
        <mxCell id="p7BTwmTzS3zFtRXm9ndh-47" value="Отклонено банком&lt;br&gt;" style="text;html=1;align=center;verticalAlign=middle;resizable=0;points=[];autosize=1;strokeColor=none;fontFamily=Comic Sans MS;rotation=-45;" vertex="1" parent="1">
          <mxGeometry x="305" y="280" width="120" height="20" as="geometry" />
        </mxCell>
        <mxCell id="p7BTwmTzS3zFtRXm9ndh-48" value="" style="endArrow=classic;html=1;fontFamily=Comic Sans MS;exitX=0.597;exitY=1.02;exitDx=0;exitDy=0;exitPerimeter=0;" edge="1" parent="1" source="p7BTwmTzS3zFtRXm9ndh-17">
          <mxGeometry width="50" height="50" relative="1" as="geometry">
            <mxPoint x="485" y="268.75" as="sourcePoint" />
            <mxPoint x="330" y="350" as="targetPoint" />
            <Array as="points">
              <mxPoint x="460" y="250" />
              <mxPoint x="390" y="320" />
            </Array>
          </mxGeometry>
        </mxCell>
        <mxCell id="p7BTwmTzS3zFtRXm9ndh-49" value="Отклонено пользователем" style="text;html=1;align=center;verticalAlign=middle;resizable=0;points=[];autosize=1;strokeColor=none;fontFamily=Comic Sans MS;rotation=-45;" vertex="1" parent="1">
          <mxGeometry x="330" y="298.75" width="170" height="20" as="geometry" />
        </mxCell>
        <mxCell id="p7BTwmTzS3zFtRXm9ndh-52" value="" style="ellipse;whiteSpace=wrap;html=1;aspect=fixed;fontFamily=Comic Sans MS;strokeColor=#000000;fillColor=#FFFFFF;" vertex="1" parent="1">
          <mxGeometry x="300" y="350" width="20" height="20" as="geometry" />
        </mxCell>
        <mxCell id="p7BTwmTzS3zFtRXm9ndh-53" value="" style="ellipse;whiteSpace=wrap;html=1;aspect=fixed;fontFamily=Comic Sans MS;strokeColor=#000000;fillColor=#FF0000;" vertex="1" parent="1">
          <mxGeometry x="305" y="355" width="10" height="10" as="geometry" />
        </mxCell>
        <mxCell id="p7BTwmTzS3zFtRXm9ndh-55" value="" style="endArrow=classic;html=1;fontFamily=Comic Sans MS;" edge="1" parent="1">
          <mxGeometry width="50" height="50" relative="1" as="geometry">
            <mxPoint x="640" y="600" as="sourcePoint" />
            <mxPoint x="620" y="640" as="targetPoint" />
          </mxGeometry>
        </mxCell>
        <mxCell id="p7BTwmTzS3zFtRXm9ndh-56" value="" style="ellipse;whiteSpace=wrap;html=1;aspect=fixed;fontFamily=Comic Sans MS;strokeColor=#000000;fillColor=#FFFFFF;" vertex="1" parent="1">
          <mxGeometry x="609.38" y="640" width="20" height="20" as="geometry" />
        </mxCell>
        <mxCell id="p7BTwmTzS3zFtRXm9ndh-57" value="" style="ellipse;whiteSpace=wrap;html=1;aspect=fixed;fontFamily=Comic Sans MS;strokeColor=#000000;fillColor=#FF0000;" vertex="1" parent="1">
          <mxGeometry x="614.38" y="645" width="10" height="10" as="geometry" />
        </mxCell>
      </root>
    </mxGraphModel>
  </diagram>
</mxfile>
